<svg xmlns="http://www.w3.org/2000/svg" xmlns:xlink="http://www.w3.org/1999/xlink" version="1.1" x="0px" y="0px" viewBox="0 0 66 82.5" enable-background="new 0 0 66 66" xml:space="preserve"><g><path d="M54.9,29.2c2.8-1.9,6.3-2.1,8.2-2.1c-4.7,14.8-23.9,18-33.3,6.4C24.9,27.6,24,20,27.2,13.2c3.4-7.2,11-12,19.4-11.1   c-2.1,5.8-6.8,7.4-8.9,9.1c-5.5,3.7-7.4,10.9-4.3,16.5c3.6,6.3,11.6,8,17.4,4.2L54.9,29.2z" fill="#ffffff"/><path d="M63.6,25.1c-2.2-0.1-6.3,0.1-9.8,2.4l-4,2.7c-4.9,3.2-11.6,1.7-14.6-3.5C32.5,22,34.1,16,38.8,12.9c2-1.7,7.5-3.5,9.8-10.5   C58.9,4.5,65.7,14.6,63.6,25.1z" fill="#ffffff"/><g><path d="M23.3,22.3C19.6,24.4,9.8,31.2,4,46.8c-0.5,1.3-2.3,0.6-1.9-0.7C8.8,28.1,20.4,21.4,23.3,20    C23.3,20.8,23.3,21.5,23.3,22.3z" fill="#ffffff"/><path d="M27.3,33.6c-3.2,1.6-15.8,9.3-21.6,29.7c-0.2,0.6-0.8,0.9-1.2,0.7c-0.5-0.1-0.8-0.7-0.7-1.2c5.9-20.9,18.6-28.9,22.4-30.8    C26.5,32.5,26.9,33.1,27.3,33.6z" fill="#ffffff"/><path d="M37,41.2c-2,1-11.4,6-18,19.4c-0.2,0.5-0.8,0.7-1.3,0.5c-0.5-0.3-0.7-0.8-0.5-1.3c5.9-12,13.9-17.6,17.5-19.6    C35.5,40.5,36.2,40.9,37,41.2z" fill="#ffffff"/></g></g></svg>